<?xml version="1.0" encoding="UTF-8" standalone="no"?>
<!-- Generator: Adobe Illustrator 18.1.1, SVG Export Plug-In . SVG Version: 6.00 Build 0)  -->

<svg
   xmlns:dc="http://purl.org/dc/elements/1.1/"
   xmlns:cc="http://creativecommons.org/ns#"
   xmlns:rdf="http://www.w3.org/1999/02/22-rdf-syntax-ns#"
   xmlns:svg="http://www.w3.org/2000/svg"
   xmlns="http://www.w3.org/2000/svg"
   xmlns:sodipodi="http://sodipodi.sourceforge.net/DTD/sodipodi-0.dtd"
   xmlns:inkscape="http://www.inkscape.org/namespaces/inkscape"
   version="1.1"
   id="Capa_1"
   x="0px"
   y="0px"
   viewBox="0 0 14 14"
   style="enable-background:new 0 0 14 14;"
   xml:space="preserve"
   sodipodi:docname="envelope.svg"
   inkscape:version="0.92.4 (33fec40, 2019-01-16)"><metadata
   id="metadata4167"><rdf:RDF><cc:Work
       rdf:about=""><dc:format>image/svg+xml</dc:format><dc:type
         rdf:resource="http://purl.org/dc/dcmitype/StillImage" /></cc:Work></rdf:RDF></metadata><defs
   id="defs4165" /><sodipodi:namedview
   pagecolor="#ffffff"
   bordercolor="#666666"
   borderopacity="1"
   objecttolerance="10"
   gridtolerance="10"
   guidetolerance="10"
   inkscape:pageopacity="0"
   inkscape:pageshadow="2"
   inkscape:window-width="1317"
   inkscape:window-height="715"
   id="namedview4163"
   showgrid="false"
   inkscape:zoom="67.428571"
   inkscape:cx="8.2184466"
   inkscape:cy="9.3699654"
   inkscape:window-x="49"
   inkscape:window-y="25"
   inkscape:window-maximized="1"
   inkscape:current-layer="Capa_1" />
<g
   id="g4130">
	<g
   id="g4128">
		<path
   style="fill:#030104;"
   d="M7,9L5.268,7.484l-4.952,4.245C0.496,11.896,0.739,12,1.007,12h11.986    c0.267,0,0.509-0.104,0.688-0.271L8.732,7.484L7,9z"
   id="path4120" />
		<path
   style="fill:#030104;"
   d="M13.684,2.271C13.504,2.103,13.262,2,12.993,2H1.007C0.74,2,0.498,2.104,0.318,2.273L7,8    L13.684,2.271z"
   id="path4122" />
		<polygon
   style="fill:#030104;"
   points="0,2.878 0,11.186 4.833,7.079   "
   id="polygon4124" />
		<polygon
   style="fill:#030104;"
   points="9.167,7.079 14,11.186 14,2.875   "
   id="polygon4126" />
	</g>
</g>
<g
   id="g4132">
</g>
<g
   id="g4134">
</g>
<g
   id="g4136">
</g>
<g
   id="g4138">
</g>
<g
   id="g4140">
</g>
<g
   id="g4142">
</g>
<g
   id="g4144">
</g>
<g
   id="g4146">
</g>
<g
   id="g4148">
</g>
<g
   id="g4150">
</g>
<g
   id="g4152">
</g>
<g
   id="g4154">
</g>
<g
   id="g4156">
</g>
<g
   id="g4158">
</g>
<g
   id="g4160">
</g>
<path
   style="fill:#333333;stroke-width:0.05932203"
   d=""
   id="path4169"
   inkscape:connector-curvature="0" /><path
   style="fill:#4d4d4d;stroke-width:0.01483051"
   d="M 3.6684466,5.1348462 C 1.8372495,3.5654341 0.33899739,2.2772019 0.33899739,2.2721082 c 0,-0.018265 0.14738644,-0.1201857 0.23694538,-0.1638529 0.0502221,-0.024487 0.13090823,-0.056622 0.17930243,-0.07141 0.0842597,-0.025748 0.3463611,-0.027061 6.1833285,-0.030978 6.5687063,-0.00441 6.2115053,-0.00831 6.4186983,0.070148 0.08484,0.032125 0.306937,0.1702768 0.306937,0.1909211 0,0.00802 -6.4002027,5.5025609 -6.6218218,5.6848004 l -0.044492,0.036586 z"
   id="path4193"
   inkscape:connector-curvature="0" /><path
   style="fill:#4d4d4d;stroke-width:0.01483051"
   d="M 0.00531095,7.0316033 V 2.8922809 L 1.0397389,3.7915921 C 1.6086743,4.2862132 2.6923097,5.2282117 3.4478177,5.8849219 L 4.8214683,7.0789407 2.4912499,9.0588055 C 1.2096296,10.147731 0.12599422,11.068428 0.08317112,11.104798 l -0.07786017,0.06613 z"
   id="path4195"
   inkscape:connector-curvature="0" /><path
   style="fill:#4d4d4d;stroke-width:0.01483051"
   d="M 11.584549,9.1233286 C 10.265365,8.0022859 9.1897646,7.0790316 9.1943252,7.0716522 9.2099409,7.0463856 13.978021,2.9041567 13.984282,2.910418 c 0.0034,0.00344 0.0046,1.861358 0.0025,4.1287106 l -0.0037,4.1224594 z"
   id="path4197"
   inkscape:connector-curvature="0" /><path
   style="fill:#4d4d4d;stroke-width:0.01483051"
   d="M 0.86354548,11.982018 C 0.74045383,11.96383 0.60373056,11.91444 0.49471773,11.848782 0.37267016,11.775272 0.32299594,11.733104 0.34033093,11.717722 0.34775427,11.711135 1.4576772,10.759424 2.8068265,9.6028082 4.8951344,7.8125177 5.2636553,7.5022634 5.2855897,7.5159616 c 0.01417,0.00885 0.4040237,0.3473832 0.8663403,0.7522967 0.4623166,0.4049135 0.8484621,0.7327599 0.8581012,0.7285474 0.00964,-0.00421 0.4011347,-0.3439695 0.8699904,-0.7550158 L 8.7324865,7.4944331 11.19464,9.6061222 c 1.354185,1.1614288 2.463713,2.1162988 2.465618,2.1219318 0.0058,0.01715 -0.146262,0.122885 -0.240752,0.167395 -0.04894,0.02305 -0.129026,0.05385 -0.177966,0.06844 -0.0848,0.02528 -0.375782,0.02662 -6.1917375,0.02849 -3.3565148,0.0011 -6.14033051,-0.0036 -6.18625702,-0.01037 z"
   id="path4199"
   inkscape:connector-curvature="0" /></svg>