<?xml version="1.0" encoding="UTF-8" standalone="no"?>
<svg
   xmlns:dc="http://purl.org/dc/elements/1.1/"
   xmlns:cc="http://creativecommons.org/ns#"
   xmlns:rdf="http://www.w3.org/1999/02/22-rdf-syntax-ns#"
   xmlns:svg="http://www.w3.org/2000/svg"
   xmlns="http://www.w3.org/2000/svg"
   xmlns:sodipodi="http://sodipodi.sourceforge.net/DTD/sodipodi-0.dtd"
   xmlns:inkscape="http://www.inkscape.org/namespaces/inkscape"
   viewBox="0 0 128 128"
   version="1.1"
   id="svg4098"
   sodipodi:docname="wordpress-plain.svg"
   inkscape:version="0.92.4 (f8dce91, 2019-08-02)">
  <metadata
     id="metadata4104">
    <rdf:RDF>
      <cc:Work
         rdf:about="">
        <dc:format>image/svg+xml</dc:format>
        <dc:type
           rdf:resource="http://purl.org/dc/dcmitype/StillImage" />
      </cc:Work>
    </rdf:RDF>
  </metadata>
  <defs
     id="defs4102" />
  <sodipodi:namedview
     pagecolor="#ffffff"
     bordercolor="#666666"
     borderopacity="1"
     objecttolerance="10"
     gridtolerance="10"
     guidetolerance="10"
     inkscape:pageopacity="0"
     inkscape:pageshadow="2"
     inkscape:window-width="1317"
     inkscape:window-height="715"
     id="namedview4100"
     showgrid="false"
     inkscape:zoom="4.2109375"
     inkscape:cx="64"
     inkscape:cy="64"
     inkscape:window-x="49"
     inkscape:window-y="25"
     inkscape:window-maximized="1"
     inkscape:current-layer="svg4098" />
  <path
     d="M 64.094,126.224 C 98.369,126.172 126.115,98.291 126.115,63.899 126.115,30.066 98.497,2.202 65.502,1.613 30.85,0.995 1.894,29.113 1.885,63.21 1.875,98.289 29.497,126.274 64.094,126.224 Z M 63.993,4.63 C 96.9,4.619 123.119,31.355 123.109,64.91 123.098,96.589 96.184,123.09 64.017,123.097 31.246,123.104 4.892,96.534 4.893,63.489 4.895,31.296 31.659,4.641 63.993,4.63 Z M 39.157,35.896 c 0.538,1.793 -0.968,2.417 -2.569,2.542 -1.685,0.13 -3.369,0.257 -5.325,0.406 6.456,19.234 12.815,38.183 19.325,57.573 0.464,-0.759 0.655,-0.973 0.739,-1.223 3.574,-10.682 7.168,-21.357 10.651,-32.069 0.318,-0.977 0.16,-2.271 -0.188,-3.275 -1.843,-5.32 -4.051,-10.524 -5.667,-15.908 -1.105,-3.686 -2.571,-6.071 -6.928,-5.644 -0.742,0.073 -1.648,-1.524 -2.479,-2.349 1.005,-0.6 2.003,-1.704 3.017,-1.719 8.872,-0.135 17.747,-0.135 26.618,0.008 1.018,0.017 2.016,1.15 3.021,1.765 -0.88,0.804 -1.639,2.01 -2.668,2.321 -1.651,0.498 -3.482,0.404 -5.458,0.58 6.463,19.225 12.793,38.057 19.349,57.56 2.931,-9.736 5.658,-18.676 8.31,-27.639 2.366,-8.001 0.956,-15.473 -3.322,-22.52 C 94.297,44.186 92.717,42.13 91.988,39.819 91.16,37.19 90.472,34.197 90.911,31.56 91.656,27.091 95.085,24.872 99.725,24.447 74.333,0.881 34.431,9.317 19.728,34.922 c 5.66,-0.261 11.064,-0.604 16.472,-0.678 1.022,-0.013 2.717,0.851 2.957,1.652 z m 10.117,77.971 c -0.118,0.345 -0.125,0.729 -0.218,1.302 10.943,3.034 21.675,2.815 32.659,-0.886 l -16.78,-45.96 c -5.37,15.611 -10.52,30.575 -15.661,45.544 z m -8.456,-2.078 -25.281,-69.35 c -11.405,22.278 -2.729,56.268 25.281,69.35 z m 76.428,-44.562 c 0.802,-10.534 -2.832,-25.119 -5.97,-27.125 -0.35,3.875 -0.106,8.186 -1.218,12.114 -2.617,9.255 -5.817,18.349 -8.899,27.468 -3.35,9.912 -6.832,19.779 -10.257,29.666 16.092,-9.539 24.935,-23.618 26.344,-42.123 z"
     id="path4096"
     inkscape:connector-curvature="0"
     style="clip-rule:evenodd;display:inline;fill:#ffffff;fill-rule:evenodd" />
</svg>
